<mxfile host="app.diagrams.net" modified="2023-05-15T12:41:02.195Z" agent="Mozilla/5.0 (Windows NT 10.0; Win64; x64; rv:109.0) Gecko/20100101 Firefox/113.0" etag="962gYW2pHGnv64ClYcF6" version="21.2.9" type="github">
  <diagram name="Page-1" id="XM1f6DpCH7KMP5lu6Yvw">
    <mxGraphModel dx="954" dy="556" grid="1" gridSize="10" guides="1" tooltips="1" connect="1" arrows="1" fold="1" page="1" pageScale="1" pageWidth="850" pageHeight="1100" math="0" shadow="0">
      <root>
        <mxCell id="0" />
        <mxCell id="1" parent="0" />
        <mxCell id="8137hw_Ghs9WW8GP2V3L-8" value="" style="endArrow=classic;html=1;rounded=0;" parent="1" target="8137hw_Ghs9WW8GP2V3L-39" edge="1">
          <mxGeometry width="50" height="50" relative="1" as="geometry">
            <mxPoint x="110" y="200" as="sourcePoint" />
            <mxPoint x="290" y="200" as="targetPoint" />
          </mxGeometry>
        </mxCell>
        <mxCell id="8137hw_Ghs9WW8GP2V3L-5" value="" style="endArrow=classic;html=1;rounded=0;" parent="1" edge="1">
          <mxGeometry width="50" height="50" relative="1" as="geometry">
            <mxPoint x="105" y="158" as="sourcePoint" />
            <mxPoint x="285" y="158" as="targetPoint" />
          </mxGeometry>
        </mxCell>
        <mxCell id="8137hw_Ghs9WW8GP2V3L-39" value="" style="html=1;points=[];perimeter=orthogonalPerimeter;outlineConnect=0;targetShapes=umlLifeline;portConstraint=eastwest;newEdgeStyle={&quot;edgeStyle&quot;:&quot;elbowEdgeStyle&quot;,&quot;elbow&quot;:&quot;vertical&quot;,&quot;curved&quot;:0,&quot;rounded&quot;:0};" parent="1" vertex="1">
          <mxGeometry x="285" y="150" width="10" height="540" as="geometry" />
        </mxCell>
        <mxCell id="KHhqTFs9rSrhKsE9ta5N-1" value="Actor" style="shape=umlActor;verticalLabelPosition=bottom;verticalAlign=top;html=1;outlineConnect=0;" parent="1" vertex="1">
          <mxGeometry x="90" y="40" width="30" height="60" as="geometry" />
        </mxCell>
        <mxCell id="KHhqTFs9rSrhKsE9ta5N-2" value="website" style="rounded=0;whiteSpace=wrap;html=1;" parent="1" vertex="1">
          <mxGeometry x="230" y="50" width="120" height="60" as="geometry" />
        </mxCell>
        <mxCell id="KHhqTFs9rSrhKsE9ta5N-3" value="database" style="rounded=0;whiteSpace=wrap;html=1;" parent="1" vertex="1">
          <mxGeometry x="440" y="50" width="120" height="60" as="geometry" />
        </mxCell>
        <mxCell id="8137hw_Ghs9WW8GP2V3L-1" value="" style="endArrow=none;html=1;rounded=0;exitX=0.5;exitY=1;exitDx=0;exitDy=0;dashed=1;endFill=0;" parent="1" source="8137hw_Ghs9WW8GP2V3L-39" edge="1">
          <mxGeometry width="50" height="50" relative="1" as="geometry">
            <mxPoint x="400" y="310" as="sourcePoint" />
            <mxPoint x="290" y="720" as="targetPoint" />
          </mxGeometry>
        </mxCell>
        <mxCell id="8137hw_Ghs9WW8GP2V3L-2" value="" style="endArrow=none;html=1;rounded=0;exitX=0.5;exitY=1;exitDx=0;exitDy=0;dashed=1;endFill=0;" parent="1" source="8137hw_Ghs9WW8GP2V3L-41" edge="1">
          <mxGeometry width="50" height="50" relative="1" as="geometry">
            <mxPoint x="499.5" y="110" as="sourcePoint" />
            <mxPoint x="500" y="720" as="targetPoint" />
          </mxGeometry>
        </mxCell>
        <mxCell id="8137hw_Ghs9WW8GP2V3L-3" value="" style="endArrow=none;html=1;rounded=0;exitX=0.5;exitY=1;exitDx=0;exitDy=0;dashed=1;endFill=0;" parent="1" edge="1">
          <mxGeometry width="50" height="50" relative="1" as="geometry">
            <mxPoint x="104.5" y="120" as="sourcePoint" />
            <mxPoint x="105" y="720" as="targetPoint" />
          </mxGeometry>
        </mxCell>
        <mxCell id="8137hw_Ghs9WW8GP2V3L-6" value="Enter login details" style="text;html=1;align=center;verticalAlign=middle;resizable=0;points=[];autosize=1;strokeColor=none;fillColor=none;" parent="1" vertex="1">
          <mxGeometry x="130" y="128" width="120" height="30" as="geometry" />
        </mxCell>
        <mxCell id="8137hw_Ghs9WW8GP2V3L-9" value="Click login" style="text;html=1;align=center;verticalAlign=middle;resizable=0;points=[];autosize=1;strokeColor=none;fillColor=none;" parent="1" vertex="1">
          <mxGeometry x="150" y="170" width="80" height="30" as="geometry" />
        </mxCell>
        <mxCell id="8137hw_Ghs9WW8GP2V3L-10" value="" style="endArrow=classic;html=1;rounded=0;" parent="1" edge="1">
          <mxGeometry width="50" height="50" relative="1" as="geometry">
            <mxPoint x="295" y="230" as="sourcePoint" />
            <mxPoint x="495" y="230" as="targetPoint" />
          </mxGeometry>
        </mxCell>
        <mxCell id="8137hw_Ghs9WW8GP2V3L-11" value="Check login details" style="text;html=1;align=center;verticalAlign=middle;resizable=0;points=[];autosize=1;strokeColor=none;fillColor=none;" parent="1" vertex="1">
          <mxGeometry x="330" y="200" width="130" height="30" as="geometry" />
        </mxCell>
        <mxCell id="8137hw_Ghs9WW8GP2V3L-15" value="alt" style="shape=umlFrame;whiteSpace=wrap;html=1;pointerEvents=0;" parent="1" vertex="1">
          <mxGeometry x="80" y="330" width="450" height="350" as="geometry" />
        </mxCell>
        <mxCell id="8137hw_Ghs9WW8GP2V3L-17" value="" style="html=1;verticalAlign=bottom;endArrow=open;dashed=1;endSize=8;edgeStyle=elbowEdgeStyle;elbow=vertical;curved=0;rounded=0;" parent="1" edge="1">
          <mxGeometry y="-10" relative="1" as="geometry">
            <mxPoint x="495" y="380" as="sourcePoint" />
            <mxPoint x="295" y="380" as="targetPoint" />
            <mxPoint as="offset" />
          </mxGeometry>
        </mxCell>
        <mxCell id="8137hw_Ghs9WW8GP2V3L-18" value="user login accepted" style="text;html=1;align=center;verticalAlign=middle;resizable=0;points=[];autosize=1;strokeColor=none;fillColor=none;" parent="1" vertex="1">
          <mxGeometry x="330" y="350" width="130" height="30" as="geometry" />
        </mxCell>
        <mxCell id="8137hw_Ghs9WW8GP2V3L-20" value="redirect" style="text;html=1;align=center;verticalAlign=middle;resizable=0;points=[];autosize=1;strokeColor=none;fillColor=none;" parent="1" vertex="1">
          <mxGeometry x="260" y="388" width="60" height="30" as="geometry" />
        </mxCell>
        <mxCell id="8137hw_Ghs9WW8GP2V3L-23" value="" style="html=1;verticalAlign=bottom;endArrow=open;dashed=1;endSize=8;edgeStyle=elbowEdgeStyle;elbow=vertical;curved=0;rounded=0;" parent="1" edge="1">
          <mxGeometry y="-10" relative="1" as="geometry">
            <mxPoint x="285" y="470" as="sourcePoint" />
            <mxPoint x="105" y="470" as="targetPoint" />
            <mxPoint as="offset" />
          </mxGeometry>
        </mxCell>
        <mxCell id="8137hw_Ghs9WW8GP2V3L-24" value="successful login(message)" style="text;html=1;align=center;verticalAlign=middle;resizable=0;points=[];autosize=1;strokeColor=none;fillColor=none;" parent="1" vertex="1">
          <mxGeometry x="110" y="440" width="170" height="30" as="geometry" />
        </mxCell>
        <mxCell id="8137hw_Ghs9WW8GP2V3L-19" value="" style="endArrow=classic;html=1;curved=1;" parent="1" edge="1">
          <mxGeometry width="50" height="50" relative="1" as="geometry">
            <mxPoint x="295" y="418" as="sourcePoint" />
            <mxPoint x="295" y="443" as="targetPoint" />
            <Array as="points">
              <mxPoint x="335" y="438" />
            </Array>
          </mxGeometry>
        </mxCell>
        <mxCell id="8137hw_Ghs9WW8GP2V3L-27" value="" style="endArrow=classic;html=1;curved=1;" parent="1" edge="1">
          <mxGeometry width="50" height="50" relative="1" as="geometry">
            <mxPoint x="505" y="270" as="sourcePoint" />
            <mxPoint x="505" y="295" as="targetPoint" />
            <Array as="points">
              <mxPoint x="545" y="290" />
            </Array>
          </mxGeometry>
        </mxCell>
        <mxCell id="8137hw_Ghs9WW8GP2V3L-28" value="" style="endArrow=none;dashed=1;html=1;rounded=0;" parent="1" edge="1">
          <mxGeometry width="50" height="50" relative="1" as="geometry">
            <mxPoint x="110" y="480" as="sourcePoint" />
            <mxPoint x="500" y="480" as="targetPoint" />
          </mxGeometry>
        </mxCell>
        <mxCell id="8137hw_Ghs9WW8GP2V3L-29" value="[login data is incorrect]" style="text;html=1;align=center;verticalAlign=middle;resizable=0;points=[];autosize=1;strokeColor=none;fillColor=none;" parent="1" vertex="1">
          <mxGeometry x="220" y="480" width="150" height="30" as="geometry" />
        </mxCell>
        <mxCell id="8137hw_Ghs9WW8GP2V3L-30" value="" style="html=1;verticalAlign=bottom;endArrow=open;dashed=1;endSize=8;edgeStyle=elbowEdgeStyle;elbow=vertical;curved=0;rounded=0;" parent="1" edge="1">
          <mxGeometry y="-10" relative="1" as="geometry">
            <mxPoint x="495" y="530" as="sourcePoint" />
            <mxPoint x="295" y="530" as="targetPoint" />
            <mxPoint as="offset" />
          </mxGeometry>
        </mxCell>
        <mxCell id="8137hw_Ghs9WW8GP2V3L-31" value="user login rejected" style="text;html=1;align=center;verticalAlign=middle;resizable=0;points=[];autosize=1;strokeColor=none;fillColor=none;" parent="1" vertex="1">
          <mxGeometry x="330" y="500" width="130" height="30" as="geometry" />
        </mxCell>
        <mxCell id="8137hw_Ghs9WW8GP2V3L-32" value="" style="endArrow=classic;html=1;curved=1;" parent="1" edge="1">
          <mxGeometry width="50" height="50" relative="1" as="geometry">
            <mxPoint x="295" y="570" as="sourcePoint" />
            <mxPoint x="295" y="595" as="targetPoint" />
            <Array as="points">
              <mxPoint x="335" y="590" />
            </Array>
          </mxGeometry>
        </mxCell>
        <mxCell id="8137hw_Ghs9WW8GP2V3L-33" value="redirect" style="text;html=1;align=center;verticalAlign=middle;resizable=0;points=[];autosize=1;strokeColor=none;fillColor=none;" parent="1" vertex="1">
          <mxGeometry x="260" y="540" width="60" height="30" as="geometry" />
        </mxCell>
        <mxCell id="8137hw_Ghs9WW8GP2V3L-34" value="" style="html=1;verticalAlign=bottom;endArrow=open;dashed=1;endSize=8;edgeStyle=elbowEdgeStyle;elbow=vertical;curved=0;rounded=0;" parent="1" edge="1">
          <mxGeometry y="-10" relative="1" as="geometry">
            <mxPoint x="285" y="630" as="sourcePoint" />
            <mxPoint x="105" y="630" as="targetPoint" />
            <mxPoint as="offset" />
          </mxGeometry>
        </mxCell>
        <mxCell id="8137hw_Ghs9WW8GP2V3L-35" value="clear the password field" style="text;html=1;align=center;verticalAlign=middle;resizable=0;points=[];autosize=1;strokeColor=none;fillColor=none;" parent="1" vertex="1">
          <mxGeometry x="130" y="600" width="150" height="30" as="geometry" />
        </mxCell>
        <mxCell id="8137hw_Ghs9WW8GP2V3L-36" value="" style="html=1;verticalAlign=bottom;endArrow=open;dashed=1;endSize=8;edgeStyle=elbowEdgeStyle;elbow=vertical;curved=0;rounded=0;" parent="1" edge="1">
          <mxGeometry y="-10" relative="1" as="geometry">
            <mxPoint x="285" y="670" as="sourcePoint" />
            <mxPoint x="105" y="670" as="targetPoint" />
            <mxPoint as="offset" />
          </mxGeometry>
        </mxCell>
        <mxCell id="8137hw_Ghs9WW8GP2V3L-37" value="incorrect login details(message)" style="text;html=1;align=center;verticalAlign=middle;resizable=0;points=[];autosize=1;strokeColor=none;fillColor=none;" parent="1" vertex="1">
          <mxGeometry x="95" y="640" width="200" height="30" as="geometry" />
        </mxCell>
        <mxCell id="8137hw_Ghs9WW8GP2V3L-40" value="" style="endArrow=classic;html=1;rounded=0;exitX=0.5;exitY=1;exitDx=0;exitDy=0;dashed=1;" parent="1" source="KHhqTFs9rSrhKsE9ta5N-2" target="8137hw_Ghs9WW8GP2V3L-39" edge="1">
          <mxGeometry width="50" height="50" relative="1" as="geometry">
            <mxPoint x="290" y="110" as="sourcePoint" />
            <mxPoint x="290" y="720" as="targetPoint" />
          </mxGeometry>
        </mxCell>
        <mxCell id="8137hw_Ghs9WW8GP2V3L-16" value="[login data is correct]" style="text;html=1;align=center;verticalAlign=middle;resizable=0;points=[];autosize=1;strokeColor=none;fillColor=none;shadow=1;" parent="1" vertex="1">
          <mxGeometry x="215" y="330" width="140" height="30" as="geometry" />
        </mxCell>
        <mxCell id="8137hw_Ghs9WW8GP2V3L-42" value="" style="endArrow=classic;html=1;rounded=0;exitX=0.5;exitY=1;exitDx=0;exitDy=0;dashed=1;" parent="1" target="8137hw_Ghs9WW8GP2V3L-41" edge="1">
          <mxGeometry width="50" height="50" relative="1" as="geometry">
            <mxPoint x="499.5" y="110" as="sourcePoint" />
            <mxPoint x="500" y="720" as="targetPoint" />
          </mxGeometry>
        </mxCell>
        <mxCell id="8137hw_Ghs9WW8GP2V3L-41" value="" style="html=1;points=[];perimeter=orthogonalPerimeter;outlineConnect=0;targetShapes=umlLifeline;portConstraint=eastwest;newEdgeStyle={&quot;edgeStyle&quot;:&quot;elbowEdgeStyle&quot;,&quot;elbow&quot;:&quot;vertical&quot;,&quot;curved&quot;:0,&quot;rounded&quot;:0};" parent="1" vertex="1">
          <mxGeometry x="495" y="220" width="10" height="470" as="geometry" />
        </mxCell>
        <mxCell id="8137hw_Ghs9WW8GP2V3L-13" value="Validate user data" style="text;html=1;align=center;verticalAlign=middle;resizable=0;points=[];autosize=1;strokeColor=none;fillColor=none;" parent="1" vertex="1">
          <mxGeometry x="440" y="240" width="120" height="30" as="geometry" />
        </mxCell>
      </root>
    </mxGraphModel>
  </diagram>
</mxfile>
